<svg id="Capa_1" enable-background="new 0 0 497 497" height="512" viewBox="0 0 497 497" width="512" xmlns="http://www.w3.org/2000/svg"><g><path d="m233.5 437v52.5c0 4.142 3.358 7.5 7.5 7.5h15c4.142 0 7.5-3.358 7.5-7.5v-52.5z" fill="#eb653e"/><path d="m248.5 0c-8.284 0-15 6.716-15 15v392h30v-392c0-8.284-6.716-15-15-15z" fill="#ec9345"/><path d="m308.5 377c-8.284 0-15 6.716-15 15l-15 15 15 15c0 8.284 6.716 15 15 15s15-6.716 15-15v-30c0-8.284-6.716-15-15-15z" fill="#f2b084"/><path d="m278.5 377h-30v90h30c8.284 0 15-6.716 15-15v-60c0-8.284-6.716-15-15-15z" fill="#f19274"/><path d="m263.5 452v-60c0-8.284-6.716-15-15-15h-30c-8.284 0-15 6.716-15 15s6.716 15 15 15c-8.284 0-15 6.716-15 15s6.716 15 15 15c-8.284 0-15 6.716-15 15s6.716 15 15 15h30c8.284 0 15-6.716 15-15z" fill="#f2b084"/><path d="m466 30-59 135.804 59 164.196h23.5c4.142 0 7.5-3.358 7.5-7.5v-285c0-4.142-3.358-7.5-7.5-7.5z" fill="#b6b5d8"/><path d="m0 37.5v285c0 4.142 3.358 7.5 7.5 7.5h458.5v-300h-458.5c-4.142 0-7.5 3.358-7.5 7.5z" fill="#dadaeb"/><g fill="#2c2c2f"><path d="m211 307.5c-16.542 0-30-13.458-30-30v-60c0-16.542 13.458-30 30-30s30 13.458 30 30v60c0 16.542-13.458 30-30 30zm0-105c-8.271 0-15 6.729-15 15v60c0 8.271 6.729 15 15 15s15-6.729 15-15v-60c0-8.271-6.729-15-15-15z"/><path d="m383.497 307.501c-2.95 0-5.691-1.748-6.891-4.546l-30.606-71.415v68.46c0 4.142-3.357 7.5-7.5 7.5s-7.5-3.358-7.5-7.5v-105c0-3.561 2.504-6.631 5.992-7.347 3.489-.721 6.999 1.12 8.401 4.392l30.607 71.415v-68.46c0-4.142 3.357-7.5 7.5-7.5s7.5 3.358 7.5 7.5v105c0 3.561-2.504 6.631-5.992 7.347-.505.104-1.012.153-1.511.154z"/><path d="m286 307.5c-16.542 0-30-13.458-30-30v-60c0-16.542 13.458-30 30-30s30 13.458 30 30v60c0 16.542-13.458 30-30 30zm0-105c-8.271 0-15 6.729-15 15v60c0 8.271 6.729 15 15 15s15-6.729 15-15v-60c0-8.271-6.729-15-15-15z"/><path d="m136 307.5c-16.542 0-30-13.458-30-30 0-4.142 3.357-7.5 7.5-7.5s7.5 3.358 7.5 7.5c0 8.271 6.729 15 15 15s15-6.729 15-15c0-4.303-1.857-8.406-5.096-11.258l-29.727-26.231c-6.465-5.695-10.177-13.902-10.177-22.511 0-16.542 13.458-30 30-30s30 13.458 30 30c0 4.142-3.357 7.5-7.5 7.5s-7.5-3.358-7.5-7.5c0-8.271-6.729-15-15-15s-15 6.729-15 15c0 4.302 1.857 8.406 5.097 11.258l29.727 26.231c6.466 5.694 10.177 13.9 10.177 22.51-.001 16.543-13.459 30.001-30.001 30.001z"/><path d="m158.5 172.5c-16.542 0-30-13.458-30-30v-60c0-16.542 13.458-30 30-30s30 13.458 30 30v60c0 16.542-13.458 30-30 30zm0-105c-8.271 0-15 6.729-15 15v60c0 8.271 6.729 15 15 15s15-6.729 15-15v-60c0-8.271-6.729-15-15-15z"/><path d="m413.5 172.5c-16.542 0-30-13.458-30-30v-60c0-16.542 13.458-30 30-30s30 13.458 30 30c0 4.142-3.357 7.5-7.5 7.5s-7.5-3.358-7.5-7.5c0-8.271-6.729-15-15-15s-15 6.729-15 15v60c0 8.271 6.729 15 15 15s15-6.729 15-15v-22.5h-7.5c-4.143 0-7.5-3.358-7.5-7.5s3.357-7.5 7.5-7.5h15c4.143 0 7.5 3.358 7.5 7.5v30c0 16.542-13.458 30-30 30z"/><path d="m256 172.5c-4.143 0-7.5-3.358-7.5-7.5v-68.46l-8.106 18.915c-1.182 2.757-3.894 4.545-6.894 4.545s-5.712-1.788-6.894-4.545l-8.106-18.915v68.46c0 4.142-3.357 7.5-7.5 7.5s-7.5-3.358-7.5-7.5v-105c0-3.561 2.504-6.631 5.992-7.347 3.49-.72 6.999 1.12 8.401 4.392l15.607 36.415 15.606-36.415c1.402-3.272 4.92-5.108 8.401-4.392 3.488.716 5.992 3.786 5.992 7.347v105c.001 4.142-3.356 7.5-7.499 7.5z"/><path d="m286 172.5c-4.143 0-7.5-3.358-7.5-7.5v-105c0-4.142 3.357-7.5 7.5-7.5s7.5 3.358 7.5 7.5v105c0 4.142-3.357 7.5-7.5 7.5z"/><path d="m83.5 172.5c-16.542 0-30-13.458-30-30v-60c0-16.542 13.458-30 30-30s30 13.458 30 30c0 4.142-3.357 7.5-7.5 7.5s-7.5-3.358-7.5-7.5c0-8.271-6.729-15-15-15s-15 6.729-15 15v60c0 8.271 6.729 15 15 15s15-6.729 15-15c0-4.142 3.357-7.5 7.5-7.5s7.5 3.358 7.5 7.5c0 16.542-13.458 30-30 30z"/><path d="m360.997 172.501c-2.95 0-5.691-1.748-6.891-4.546l-30.606-71.415v68.46c0 4.142-3.357 7.5-7.5 7.5s-7.5-3.358-7.5-7.5v-105c0-3.561 2.504-6.631 5.992-7.347 3.488-.72 6.999 1.12 8.401 4.392l30.607 71.415v-68.46c0-4.142 3.357-7.5 7.5-7.5s7.5 3.358 7.5 7.5v105c0 3.561-2.504 6.631-5.992 7.347-.505.104-1.012.153-1.511.154z"/></g></g></svg>